<svg xmlns="http://www.w3.org/2000/svg" xmlns:xlink="http://www.w3.org/1999/xlink" width="465pt" height="404pt" viewBox="0.00 0.00 465.00 404.00">
<g id="graph0" class="graph" transform="scale(1 1) rotate(0) translate(4 400)">
<title>program</title>
<polygon fill="white" stroke="transparent" points="-4,4 -4,-400 461,-400 461,4 -4,4"/>
<!-- 0 -->
<g id="node1" class="node">
<title>0</title>
<ellipse fill="#136ed4" stroke="black" cx="240" cy="-378" rx="27.9" ry="18"/>
<text text-anchor="middle" x="240" y="-374.3" font-family="Times,serif" font-size="14.00">add</text>
</g>
<!-- 1 -->
<g id="node2" class="node">
<title>1</title>
<ellipse fill="#136ed4" stroke="black" cx="197" cy="-306" rx="30.59" ry="18"/>
<text text-anchor="middle" x="197" y="-302.3" font-family="Times,serif" font-size="14.00">max</text>
</g>
<!-- 0&#45;&gt;1 -->
<g id="edge20" class="edge">
<title>0-&gt;1</title>
<path fill="none" stroke="black" d="M230.24,-361.12C224.93,-352.47 218.24,-341.58 212.25,-331.83"/>
<polygon fill="black" stroke="black" points="215.23,-330 207.02,-323.31 209.27,-333.66 215.23,-330"/>
</g>
<!-- 10 -->
<g id="node11" class="node">
<title>10</title>
<ellipse fill="#136ed4" stroke="black" cx="284" cy="-306" rx="28.7" ry="18"/>
<text text-anchor="middle" x="284" y="-302.3" font-family="Times,serif" font-size="14.00">mul</text>
</g>
<!-- 0&#45;&gt;10 -->
<g id="edge19" class="edge">
<title>0-&gt;10</title>
<path fill="none" stroke="black" d="M249.98,-361.12C255.42,-352.47 262.27,-341.58 268.39,-331.83"/>
<polygon fill="black" stroke="black" points="271.39,-333.64 273.75,-323.31 265.46,-329.91 271.39,-333.64"/>
</g>
<!-- 2 -->
<g id="node3" class="node">
<title>2</title>
<ellipse fill="#136ed4" stroke="black" cx="110" cy="-234" rx="28.7" ry="18"/>
<text text-anchor="middle" x="110" y="-230.3" font-family="Times,serif" font-size="14.00">min</text>
</g>
<!-- 1&#45;&gt;2 -->
<g id="edge8" class="edge">
<title>1-&gt;2</title>
<path fill="none" stroke="black" d="M179.39,-290.83C166.61,-280.55 149.14,-266.49 134.92,-255.05"/>
<polygon fill="black" stroke="black" points="136.97,-252.21 126.99,-248.67 132.58,-257.66 136.97,-252.21"/>
</g>
<!-- 9 -->
<g id="node10" class="node">
<title>9</title>
<ellipse fill="#60a6f6" stroke="black" cx="197" cy="-234" rx="40.09" ry="18"/>
<text text-anchor="middle" x="197" y="-230.3" font-family="Times,serif" font-size="14.00">-1.937</text>
</g>
<!-- 1&#45;&gt;9 -->
<g id="edge7" class="edge">
<title>1-&gt;9</title>
<path fill="none" stroke="black" d="M197,-287.7C197,-279.98 197,-270.71 197,-262.11"/>
<polygon fill="black" stroke="black" points="200.5,-262.1 197,-252.1 193.5,-262.1 200.5,-262.1"/>
</g>
<!-- 3 -->
<g id="node4" class="node">
<title>3</title>
<ellipse fill="#136ed4" stroke="black" cx="88" cy="-162" rx="28.7" ry="18"/>
<text text-anchor="middle" x="88" y="-158.3" font-family="Times,serif" font-size="14.00">mul</text>
</g>
<!-- 2&#45;&gt;3 -->
<g id="edge6" class="edge">
<title>2-&gt;3</title>
<path fill="none" stroke="black" d="M104.67,-216.05C102.16,-208.06 99.1,-198.33 96.3,-189.4"/>
<polygon fill="black" stroke="black" points="99.61,-188.28 93.28,-179.79 92.94,-190.38 99.61,-188.28"/>
</g>
<!-- 8 -->
<g id="node9" class="node">
<title>8</title>
<ellipse fill="#60a6f6" stroke="black" cx="162" cy="-162" rx="27" ry="18"/>
<text text-anchor="middle" x="162" y="-158.3" font-family="Times,serif" font-size="14.00">X1</text>
</g>
<!-- 2&#45;&gt;8 -->
<g id="edge5" class="edge">
<title>2-&gt;8</title>
<path fill="none" stroke="black" d="M121.54,-217.46C128.27,-208.4 136.9,-196.79 144.46,-186.61"/>
<polygon fill="black" stroke="black" points="147.34,-188.61 150.49,-178.49 141.72,-184.43 147.34,-188.61"/>
</g>
<!-- 4 -->
<g id="node5" class="node">
<title>4</title>
<ellipse fill="#136ed4" stroke="black" cx="69" cy="-90" rx="30.59" ry="18"/>
<text text-anchor="middle" x="69" y="-86.3" font-family="Times,serif" font-size="14.00">max</text>
</g>
<!-- 3&#45;&gt;4 -->
<g id="edge4" class="edge">
<title>3-&gt;4</title>
<path fill="none" stroke="black" d="M83.4,-144.05C81.29,-136.26 78.72,-126.82 76.35,-118.08"/>
<polygon fill="black" stroke="black" points="79.69,-117.01 73.69,-108.28 72.93,-118.84 79.69,-117.01"/>
</g>
<!-- 7 -->
<g id="node8" class="node">
<title>7</title>
<ellipse fill="#60a6f6" stroke="black" cx="158" cy="-90" rx="40.09" ry="18"/>
<text text-anchor="middle" x="158" y="-86.3" font-family="Times,serif" font-size="14.00">-0.938</text>
</g>
<!-- 3&#45;&gt;7 -->
<g id="edge3" class="edge">
<title>3-&gt;7</title>
<path fill="none" stroke="black" d="M102.85,-146.15C112.15,-136.85 124.33,-124.67 134.88,-114.12"/>
<polygon fill="black" stroke="black" points="137.61,-116.34 142.2,-106.8 132.66,-111.39 137.61,-116.34"/>
</g>
<!-- 5 -->
<g id="node6" class="node">
<title>5</title>
<ellipse fill="#60a6f6" stroke="black" cx="27" cy="-18" rx="27" ry="18"/>
<text text-anchor="middle" x="27" y="-14.3" font-family="Times,serif" font-size="14.00">X0</text>
</g>
<!-- 4&#45;&gt;5 -->
<g id="edge2" class="edge">
<title>4-&gt;5</title>
<path fill="none" stroke="black" d="M59.26,-72.76C54.12,-64.19 47.7,-53.49 41.94,-43.9"/>
<polygon fill="black" stroke="black" points="44.83,-41.92 36.69,-35.15 38.83,-45.52 44.83,-41.92"/>
</g>
<!-- 6 -->
<g id="node7" class="node">
<title>6</title>
<ellipse fill="#60a6f6" stroke="black" cx="112" cy="-18" rx="40.09" ry="18"/>
<text text-anchor="middle" x="112" y="-14.3" font-family="Times,serif" font-size="14.00">-1.442</text>
</g>
<!-- 4&#45;&gt;6 -->
<g id="edge1" class="edge">
<title>4-&gt;6</title>
<path fill="none" stroke="black" d="M78.97,-72.76C84.16,-64.32 90.62,-53.8 96.45,-44.31"/>
<polygon fill="black" stroke="black" points="99.53,-45.99 101.78,-35.63 93.57,-42.32 99.53,-45.99"/>
</g>
<!-- 11 -->
<g id="node12" class="node">
<title>11</title>
<ellipse fill="#136ed4" stroke="black" cx="284" cy="-234" rx="28.7" ry="18"/>
<text text-anchor="middle" x="284" y="-230.3" font-family="Times,serif" font-size="14.00">min</text>
</g>
<!-- 10&#45;&gt;11 -->
<g id="edge18" class="edge">
<title>10-&gt;11</title>
<path fill="none" stroke="black" d="M284,-287.7C284,-279.98 284,-270.71 284,-262.11"/>
<polygon fill="black" stroke="black" points="287.5,-262.1 284,-252.1 280.5,-262.1 287.5,-262.1"/>
</g>
<!-- 20 -->
<g id="node21" class="node">
<title>20</title>
<ellipse fill="#60a6f6" stroke="black" cx="371" cy="-234" rx="40.09" ry="18"/>
<text text-anchor="middle" x="371" y="-230.3" font-family="Times,serif" font-size="14.00">-0.720</text>
</g>
<!-- 10&#45;&gt;20 -->
<g id="edge17" class="edge">
<title>10-&gt;20</title>
<path fill="none" stroke="black" d="M301.19,-291.17C313.52,-281.24 330.38,-267.68 344.44,-256.37"/>
<polygon fill="black" stroke="black" points="346.74,-259.01 352.34,-250.01 342.36,-253.55 346.74,-259.01"/>
</g>
<!-- 12 -->
<g id="node13" class="node">
<title>12</title>
<ellipse fill="#60a6f6" stroke="black" cx="243" cy="-162" rx="27" ry="18"/>
<text text-anchor="middle" x="243" y="-158.3" font-family="Times,serif" font-size="14.00">X0</text>
</g>
<!-- 11&#45;&gt;12 -->
<g id="edge16" class="edge">
<title>11-&gt;12</title>
<path fill="none" stroke="black" d="M274.49,-216.76C269.47,-208.19 263.2,-197.49 257.58,-187.9"/>
<polygon fill="black" stroke="black" points="260.53,-186.01 252.46,-179.15 254.49,-189.55 260.53,-186.01"/>
</g>
<!-- 13 -->
<g id="node14" class="node">
<title>13</title>
<ellipse fill="#136ed4" stroke="black" cx="316" cy="-162" rx="27.9" ry="18"/>
<text text-anchor="middle" x="316" y="-158.3" font-family="Times,serif" font-size="14.00">add</text>
</g>
<!-- 11&#45;&gt;13 -->
<g id="edge15" class="edge">
<title>11-&gt;13</title>
<path fill="none" stroke="black" d="M291.58,-216.41C295.37,-208.13 300.03,-197.92 304.27,-188.66"/>
<polygon fill="black" stroke="black" points="307.5,-190.02 308.47,-179.47 301.13,-187.11 307.5,-190.02"/>
</g>
<!-- 14 -->
<g id="node15" class="node">
<title>14</title>
<ellipse fill="#136ed4" stroke="black" cx="281" cy="-90" rx="30.59" ry="18"/>
<text text-anchor="middle" x="281" y="-86.3" font-family="Times,serif" font-size="14.00">max</text>
</g>
<!-- 13&#45;&gt;14 -->
<g id="edge14" class="edge">
<title>13-&gt;14</title>
<path fill="none" stroke="black" d="M307.88,-144.76C303.7,-136.4 298.51,-126.02 293.8,-116.61"/>
<polygon fill="black" stroke="black" points="296.92,-115.01 289.32,-107.63 290.66,-118.14 296.92,-115.01"/>
</g>
<!-- 17 -->
<g id="node18" class="node">
<title>17</title>
<ellipse fill="#136ed4" stroke="black" cx="360" cy="-90" rx="30.59" ry="18"/>
<text text-anchor="middle" x="360" y="-86.3" font-family="Times,serif" font-size="14.00">max</text>
</g>
<!-- 13&#45;&gt;17 -->
<g id="edge13" class="edge">
<title>13-&gt;17</title>
<path fill="none" stroke="black" d="M325.98,-145.12C331.42,-136.47 338.27,-125.58 344.39,-115.83"/>
<polygon fill="black" stroke="black" points="347.39,-117.64 349.75,-107.31 341.46,-113.91 347.39,-117.64"/>
</g>
<!-- 15 -->
<g id="node16" class="node">
<title>15</title>
<ellipse fill="#60a6f6" stroke="black" cx="211" cy="-18" rx="27" ry="18"/>
<text text-anchor="middle" x="211" y="-14.3" font-family="Times,serif" font-size="14.00">X5</text>
</g>
<!-- 14&#45;&gt;15 -->
<g id="edge10" class="edge">
<title>14-&gt;15</title>
<path fill="none" stroke="black" d="M266.15,-74.15C256.37,-64.37 243.4,-51.4 232.5,-40.5"/>
<polygon fill="black" stroke="black" points="234.89,-37.94 225.35,-33.35 229.94,-42.89 234.89,-37.94"/>
</g>
<!-- 16 -->
<g id="node17" class="node">
<title>16</title>
<ellipse fill="#60a6f6" stroke="black" cx="283" cy="-18" rx="27" ry="18"/>
<text text-anchor="middle" x="283" y="-14.3" font-family="Times,serif" font-size="14.00">X3</text>
</g>
<!-- 14&#45;&gt;16 -->
<g id="edge9" class="edge">
<title>14-&gt;16</title>
<path fill="none" stroke="black" d="M281.49,-71.7C281.71,-63.98 281.98,-54.71 282.23,-46.11"/>
<polygon fill="black" stroke="black" points="285.72,-46.2 282.51,-36.1 278.73,-46 285.72,-46.2"/>
</g>
<!-- 18 -->
<g id="node19" class="node">
<title>18</title>
<ellipse fill="#60a6f6" stroke="black" cx="358" cy="-18" rx="27" ry="18"/>
<text text-anchor="middle" x="358" y="-14.3" font-family="Times,serif" font-size="14.00">X6</text>
</g>
<!-- 17&#45;&gt;18 -->
<g id="edge12" class="edge">
<title>17-&gt;18</title>
<path fill="none" stroke="black" d="M359.51,-71.7C359.29,-63.98 359.02,-54.71 358.77,-46.11"/>
<polygon fill="black" stroke="black" points="362.27,-46 358.49,-36.1 355.28,-46.2 362.27,-46"/>
</g>
<!-- 19 -->
<g id="node20" class="node">
<title>19</title>
<ellipse fill="#60a6f6" stroke="black" cx="430" cy="-18" rx="27" ry="18"/>
<text text-anchor="middle" x="430" y="-14.3" font-family="Times,serif" font-size="14.00">X4</text>
</g>
<!-- 17&#45;&gt;19 -->
<g id="edge11" class="edge">
<title>17-&gt;19</title>
<path fill="none" stroke="black" d="M374.85,-74.15C384.63,-64.37 397.6,-51.4 408.5,-40.5"/>
<polygon fill="black" stroke="black" points="411.06,-42.89 415.65,-33.35 406.11,-37.94 411.06,-42.89"/>
</g>
<!-- \n -->
<g id="node22" class="node">
<title>\n</title>
<ellipse fill="lightgrey" stroke="black" cx="313" cy="-378" rx="27" ry="18"/>
</g>
</g>
</svg>