<svg xmlns="http://www.w3.org/2000/svg" xmlns:xlink="http://www.w3.org/1999/xlink" width="454pt" height="1196pt" viewBox="0.00 0.00 454.30 1196.00">
<g id="graph0" class="graph" transform="scale(1 1) rotate(0) translate(4 1192)">
<title>program</title>
<polygon fill="white" stroke="transparent" points="-4,4 -4,-1192 450.3,-1192 450.3,4 -4,4"/>
<!-- 0 -->
<g id="node1" class="node">
<title>0</title>
<ellipse fill="#136ed4" stroke="black" cx="125.3" cy="-1170" rx="27.1" ry="18"/>
<text text-anchor="middle" x="125.3" y="-1166.3" font-family="Times,serif" font-size="14.00">sub</text>
</g>
<!-- 1 -->
<g id="node2" class="node">
<title>1</title>
<ellipse fill="#136ed4" stroke="black" cx="89.3" cy="-1098" rx="27" ry="18"/>
<text text-anchor="middle" x="89.3" y="-1094.3" font-family="Times,serif" font-size="14.00">sin</text>
</g>
<!-- 0&#45;&gt;1 -->
<g id="edge36" class="edge">
<title>0-&gt;1</title>
<path fill="none" stroke="black" d="M116.95,-1152.76C112.58,-1144.28 107.15,-1133.71 102.26,-1124.2"/>
<polygon fill="black" stroke="black" points="105.29,-1122.44 97.6,-1115.15 99.06,-1125.64 105.29,-1122.44"/>
</g>
<!-- 5 -->
<g id="node6" class="node">
<title>5</title>
<ellipse fill="#136ed4" stroke="black" cx="162.3" cy="-1098" rx="27.1" ry="18"/>
<text text-anchor="middle" x="162.3" y="-1094.3" font-family="Times,serif" font-size="14.00">sub</text>
</g>
<!-- 0&#45;&gt;5 -->
<g id="edge35" class="edge">
<title>0-&gt;5</title>
<path fill="none" stroke="black" d="M133.88,-1152.76C138.36,-1144.28 143.95,-1133.71 148.98,-1124.2"/>
<polygon fill="black" stroke="black" points="152.18,-1125.62 153.76,-1115.15 145.99,-1122.35 152.18,-1125.62"/>
</g>
<!-- 2 -->
<g id="node3" class="node">
<title>2</title>
<ellipse fill="#136ed4" stroke="black" cx="88.3" cy="-1026" rx="28.7" ry="18"/>
<text text-anchor="middle" x="88.3" y="-1022.3" font-family="Times,serif" font-size="14.00">mul</text>
</g>
<!-- 1&#45;&gt;2 -->
<g id="edge3" class="edge">
<title>1-&gt;2</title>
<path fill="none" stroke="black" d="M89.05,-1079.7C88.94,-1071.98 88.81,-1062.71 88.68,-1054.11"/>
<polygon fill="black" stroke="black" points="92.18,-1054.05 88.54,-1044.1 85.18,-1054.15 92.18,-1054.05"/>
</g>
<!-- 3 -->
<g id="node4" class="node">
<title>3</title>
<ellipse fill="#60a6f6" stroke="black" cx="40.3" cy="-954" rx="40.09" ry="18"/>
<text text-anchor="middle" x="40.3" y="-950.3" font-family="Times,serif" font-size="14.00">-0.447</text>
</g>
<!-- 2&#45;&gt;3 -->
<g id="edge2" class="edge">
<title>2-&gt;3</title>
<path fill="none" stroke="black" d="M77.4,-1009.12C71.47,-1000.47 64.01,-989.58 57.32,-979.83"/>
<polygon fill="black" stroke="black" points="60.02,-977.57 51.48,-971.31 54.25,-981.53 60.02,-977.57"/>
</g>
<!-- 4 -->
<g id="node5" class="node">
<title>4</title>
<ellipse fill="#60a6f6" stroke="black" cx="125.3" cy="-954" rx="27" ry="18"/>
<text text-anchor="middle" x="125.3" y="-950.3" font-family="Times,serif" font-size="14.00">X0</text>
</g>
<!-- 2&#45;&gt;4 -->
<g id="edge1" class="edge">
<title>2-&gt;4</title>
<path fill="none" stroke="black" d="M96.88,-1008.76C101.36,-1000.28 106.95,-989.71 111.98,-980.2"/>
<polygon fill="black" stroke="black" points="115.18,-981.62 116.76,-971.15 108.99,-978.35 115.18,-981.62"/>
</g>
<!-- 6 -->
<g id="node7" class="node">
<title>6</title>
<ellipse fill="#60a6f6" stroke="black" cx="162.3" cy="-1026" rx="27" ry="18"/>
<text text-anchor="middle" x="162.3" y="-1022.3" font-family="Times,serif" font-size="14.00">X0</text>
</g>
<!-- 5&#45;&gt;6 -->
<g id="edge34" class="edge">
<title>5-&gt;6</title>
<path fill="none" stroke="black" d="M162.3,-1079.7C162.3,-1071.98 162.3,-1062.71 162.3,-1054.11"/>
<polygon fill="black" stroke="black" points="165.8,-1054.1 162.3,-1044.1 158.8,-1054.1 165.8,-1054.1"/>
</g>
<!-- 7 -->
<g id="node8" class="node">
<title>7</title>
<ellipse fill="#136ed4" stroke="black" cx="234.3" cy="-1026" rx="27" ry="18"/>
<text text-anchor="middle" x="234.3" y="-1022.3" font-family="Times,serif" font-size="14.00">sin</text>
</g>
<!-- 5&#45;&gt;7 -->
<g id="edge33" class="edge">
<title>5-&gt;7</title>
<path fill="none" stroke="black" d="M177.21,-1082.5C187.25,-1072.73 200.67,-1059.69 211.98,-1048.7"/>
<polygon fill="black" stroke="black" points="214.67,-1050.97 219.4,-1041.49 209.79,-1045.95 214.67,-1050.97"/>
</g>
<!-- 8 -->
<g id="node9" class="node">
<title>8</title>
<ellipse fill="#136ed4" stroke="black" cx="234.3" cy="-954" rx="27.1" ry="18"/>
<text text-anchor="middle" x="234.3" y="-950.3" font-family="Times,serif" font-size="14.00">sub</text>
</g>
<!-- 7&#45;&gt;8 -->
<g id="edge32" class="edge">
<title>7-&gt;8</title>
<path fill="none" stroke="black" d="M234.3,-1007.7C234.3,-999.98 234.3,-990.71 234.3,-982.11"/>
<polygon fill="black" stroke="black" points="237.8,-982.1 234.3,-972.1 230.8,-982.1 237.8,-982.1"/>
</g>
<!-- 9 -->
<g id="node10" class="node">
<title>9</title>
<ellipse fill="#60a6f6" stroke="black" cx="192.3" cy="-882" rx="40.09" ry="18"/>
<text text-anchor="middle" x="192.3" y="-878.3" font-family="Times,serif" font-size="14.00">-1.107</text>
</g>
<!-- 8&#45;&gt;9 -->
<g id="edge31" class="edge">
<title>8-&gt;9</title>
<path fill="none" stroke="black" d="M224.77,-937.12C219.7,-928.68 213.36,-918.1 207.62,-908.55"/>
<polygon fill="black" stroke="black" points="210.52,-906.57 202.37,-899.8 204.52,-910.17 210.52,-906.57"/>
</g>
<!-- 10 -->
<g id="node11" class="node">
<title>10</title>
<ellipse fill="#136ed4" stroke="black" cx="277.3" cy="-882" rx="27" ry="18"/>
<text text-anchor="middle" x="277.3" y="-878.3" font-family="Times,serif" font-size="14.00">log</text>
</g>
<!-- 8&#45;&gt;10 -->
<g id="edge30" class="edge">
<title>8-&gt;10</title>
<path fill="none" stroke="black" d="M244.05,-937.12C249.44,-928.34 256.25,-917.26 262.3,-907.42"/>
<polygon fill="black" stroke="black" points="265.33,-909.17 267.58,-898.82 259.36,-905.51 265.33,-909.17"/>
</g>
<!-- 11 -->
<g id="node12" class="node">
<title>11</title>
<ellipse fill="#136ed4" stroke="black" cx="277.3" cy="-810" rx="27.9" ry="18"/>
<text text-anchor="middle" x="277.3" y="-806.3" font-family="Times,serif" font-size="14.00">add</text>
</g>
<!-- 10&#45;&gt;11 -->
<g id="edge29" class="edge">
<title>10-&gt;11</title>
<path fill="none" stroke="black" d="M277.3,-863.7C277.3,-855.98 277.3,-846.71 277.3,-838.11"/>
<polygon fill="black" stroke="black" points="280.8,-838.1 277.3,-828.1 273.8,-838.1 280.8,-838.1"/>
</g>
<!-- 12 -->
<g id="node13" class="node">
<title>12</title>
<ellipse fill="#60a6f6" stroke="black" cx="241.3" cy="-738" rx="27" ry="18"/>
<text text-anchor="middle" x="241.3" y="-734.3" font-family="Times,serif" font-size="14.00">X2</text>
</g>
<!-- 11&#45;&gt;12 -->
<g id="edge28" class="edge">
<title>11-&gt;12</title>
<path fill="none" stroke="black" d="M268.95,-792.76C264.58,-784.28 259.15,-773.71 254.26,-764.2"/>
<polygon fill="black" stroke="black" points="257.29,-762.44 249.6,-755.15 251.06,-765.64 257.29,-762.44"/>
</g>
<!-- 13 -->
<g id="node14" class="node">
<title>13</title>
<ellipse fill="#136ed4" stroke="black" cx="313.3" cy="-738" rx="27.1" ry="18"/>
<text text-anchor="middle" x="313.3" y="-734.3" font-family="Times,serif" font-size="14.00">sub</text>
</g>
<!-- 11&#45;&gt;13 -->
<g id="edge27" class="edge">
<title>11-&gt;13</title>
<path fill="none" stroke="black" d="M285.65,-792.76C290.01,-784.28 295.44,-773.71 300.34,-764.2"/>
<polygon fill="black" stroke="black" points="303.53,-765.64 304.99,-755.15 297.31,-762.44 303.53,-765.64"/>
</g>
<!-- 14 -->
<g id="node15" class="node">
<title>14</title>
<ellipse fill="#136ed4" stroke="black" cx="277.3" cy="-666" rx="27.1" ry="18"/>
<text text-anchor="middle" x="277.3" y="-662.3" font-family="Times,serif" font-size="14.00">sub</text>
</g>
<!-- 13&#45;&gt;14 -->
<g id="edge26" class="edge">
<title>13-&gt;14</title>
<path fill="none" stroke="black" d="M304.95,-720.76C300.58,-712.28 295.15,-701.71 290.26,-692.2"/>
<polygon fill="black" stroke="black" points="293.29,-690.44 285.6,-683.15 287.06,-693.64 293.29,-690.44"/>
</g>
<!-- 32 -->
<g id="node33" class="node">
<title>32</title>
<ellipse fill="#136ed4" stroke="black" cx="349.3" cy="-666" rx="27" ry="18"/>
<text text-anchor="middle" x="349.3" y="-662.3" font-family="Times,serif" font-size="14.00">log</text>
</g>
<!-- 13&#45;&gt;32 -->
<g id="edge25" class="edge">
<title>13-&gt;32</title>
<path fill="none" stroke="black" d="M321.65,-720.76C326.01,-712.28 331.44,-701.71 336.34,-692.2"/>
<polygon fill="black" stroke="black" points="339.53,-693.64 340.99,-683.15 333.31,-690.44 339.53,-693.64"/>
</g>
<!-- 15 -->
<g id="node16" class="node">
<title>15</title>
<ellipse fill="#136ed4" stroke="black" cx="205.3" cy="-594" rx="27.1" ry="18"/>
<text text-anchor="middle" x="205.3" y="-590.3" font-family="Times,serif" font-size="14.00">sub</text>
</g>
<!-- 14&#45;&gt;15 -->
<g id="edge20" class="edge">
<title>14-&gt;15</title>
<path fill="none" stroke="black" d="M262.38,-650.5C252.34,-640.73 238.92,-627.69 227.62,-616.7"/>
<polygon fill="black" stroke="black" points="229.81,-613.95 220.2,-609.49 224.93,-618.97 229.81,-613.95"/>
</g>
<!-- 31 -->
<g id="node32" class="node">
<title>31</title>
<ellipse fill="#60a6f6" stroke="black" cx="277.3" cy="-594" rx="27" ry="18"/>
<text text-anchor="middle" x="277.3" y="-590.3" font-family="Times,serif" font-size="14.00">X0</text>
</g>
<!-- 14&#45;&gt;31 -->
<g id="edge19" class="edge">
<title>14-&gt;31</title>
<path fill="none" stroke="black" d="M277.3,-647.7C277.3,-639.98 277.3,-630.71 277.3,-622.11"/>
<polygon fill="black" stroke="black" points="280.8,-622.1 277.3,-612.1 273.8,-622.1 280.8,-622.1"/>
</g>
<!-- 16 -->
<g id="node17" class="node">
<title>16</title>
<ellipse fill="#60a6f6" stroke="black" cx="134.3" cy="-522" rx="40.09" ry="18"/>
<text text-anchor="middle" x="134.3" y="-518.3" font-family="Times,serif" font-size="14.00">-1.107</text>
</g>
<!-- 15&#45;&gt;16 -->
<g id="edge18" class="edge">
<title>15-&gt;16</title>
<path fill="none" stroke="black" d="M190.59,-578.5C181.08,-569.13 168.51,-556.73 157.65,-546.03"/>
<polygon fill="black" stroke="black" points="160.05,-543.48 150.47,-538.95 155.14,-548.46 160.05,-543.48"/>
</g>
<!-- 17 -->
<g id="node18" class="node">
<title>17</title>
<ellipse fill="#136ed4" stroke="black" cx="219.3" cy="-522" rx="27" ry="18"/>
<text text-anchor="middle" x="219.3" y="-518.3" font-family="Times,serif" font-size="14.00">log</text>
</g>
<!-- 15&#45;&gt;17 -->
<g id="edge17" class="edge">
<title>15-&gt;17</title>
<path fill="none" stroke="black" d="M208.69,-576.05C210.23,-568.35 212.09,-559.03 213.82,-550.36"/>
<polygon fill="black" stroke="black" points="217.31,-550.77 215.84,-540.28 210.45,-549.39 217.31,-550.77"/>
</g>
<!-- 18 -->
<g id="node19" class="node">
<title>18</title>
<ellipse fill="#136ed4" stroke="black" cx="219.3" cy="-450" rx="27.9" ry="18"/>
<text text-anchor="middle" x="219.3" y="-446.3" font-family="Times,serif" font-size="14.00">add</text>
</g>
<!-- 17&#45;&gt;18 -->
<g id="edge16" class="edge">
<title>17-&gt;18</title>
<path fill="none" stroke="black" d="M219.3,-503.7C219.3,-495.98 219.3,-486.71 219.3,-478.11"/>
<polygon fill="black" stroke="black" points="222.8,-478.1 219.3,-468.1 215.8,-478.1 222.8,-478.1"/>
</g>
<!-- 19 -->
<g id="node20" class="node">
<title>19</title>
<ellipse fill="#60a6f6" stroke="black" cx="183.3" cy="-378" rx="27" ry="18"/>
<text text-anchor="middle" x="183.3" y="-374.3" font-family="Times,serif" font-size="14.00">X2</text>
</g>
<!-- 18&#45;&gt;19 -->
<g id="edge15" class="edge">
<title>18-&gt;19</title>
<path fill="none" stroke="black" d="M210.95,-432.76C206.58,-424.28 201.15,-413.71 196.26,-404.2"/>
<polygon fill="black" stroke="black" points="199.29,-402.44 191.6,-395.15 193.06,-405.64 199.29,-402.44"/>
</g>
<!-- 20 -->
<g id="node21" class="node">
<title>20</title>
<ellipse fill="#136ed4" stroke="black" cx="255.3" cy="-378" rx="27.1" ry="18"/>
<text text-anchor="middle" x="255.3" y="-374.3" font-family="Times,serif" font-size="14.00">sub</text>
</g>
<!-- 18&#45;&gt;20 -->
<g id="edge14" class="edge">
<title>18-&gt;20</title>
<path fill="none" stroke="black" d="M227.65,-432.76C232.01,-424.28 237.44,-413.71 242.34,-404.2"/>
<polygon fill="black" stroke="black" points="245.53,-405.64 246.99,-395.15 239.31,-402.44 245.53,-405.64"/>
</g>
<!-- 21 -->
<g id="node22" class="node">
<title>21</title>
<ellipse fill="#136ed4" stroke="black" cx="219.3" cy="-306" rx="27" ry="18"/>
<text text-anchor="middle" x="219.3" y="-302.3" font-family="Times,serif" font-size="14.00">sin</text>
</g>
<!-- 20&#45;&gt;21 -->
<g id="edge13" class="edge">
<title>20-&gt;21</title>
<path fill="none" stroke="black" d="M246.95,-360.76C242.58,-352.28 237.15,-341.71 232.26,-332.2"/>
<polygon fill="black" stroke="black" points="235.29,-330.44 227.6,-323.15 229.06,-333.64 235.29,-330.44"/>
</g>
<!-- 28 -->
<g id="node29" class="node">
<title>28</title>
<ellipse fill="#136ed4" stroke="black" cx="291.3" cy="-306" rx="27.1" ry="18"/>
<text text-anchor="middle" x="291.3" y="-302.3" font-family="Times,serif" font-size="14.00">sub</text>
</g>
<!-- 20&#45;&gt;28 -->
<g id="edge12" class="edge">
<title>20-&gt;28</title>
<path fill="none" stroke="black" d="M263.65,-360.76C268.01,-352.28 273.44,-341.71 278.34,-332.2"/>
<polygon fill="black" stroke="black" points="281.53,-333.64 282.99,-323.15 275.31,-330.44 281.53,-333.64"/>
</g>
<!-- 22 -->
<g id="node23" class="node">
<title>22</title>
<ellipse fill="#136ed4" stroke="black" cx="219.3" cy="-234" rx="27.1" ry="18"/>
<text text-anchor="middle" x="219.3" y="-230.3" font-family="Times,serif" font-size="14.00">sub</text>
</g>
<!-- 21&#45;&gt;22 -->
<g id="edge9" class="edge">
<title>21-&gt;22</title>
<path fill="none" stroke="black" d="M219.3,-287.7C219.3,-279.98 219.3,-270.71 219.3,-262.11"/>
<polygon fill="black" stroke="black" points="222.8,-262.1 219.3,-252.1 215.8,-262.1 222.8,-262.1"/>
</g>
<!-- 23 -->
<g id="node24" class="node">
<title>23</title>
<ellipse fill="#60a6f6" stroke="black" cx="177.3" cy="-162" rx="40.09" ry="18"/>
<text text-anchor="middle" x="177.3" y="-158.3" font-family="Times,serif" font-size="14.00">-1.107</text>
</g>
<!-- 22&#45;&gt;23 -->
<g id="edge8" class="edge">
<title>22-&gt;23</title>
<path fill="none" stroke="black" d="M209.77,-217.12C204.7,-208.68 198.36,-198.1 192.62,-188.55"/>
<polygon fill="black" stroke="black" points="195.52,-186.57 187.37,-179.8 189.52,-190.17 195.52,-186.57"/>
</g>
<!-- 24 -->
<g id="node25" class="node">
<title>24</title>
<ellipse fill="#136ed4" stroke="black" cx="262.3" cy="-162" rx="27" ry="18"/>
<text text-anchor="middle" x="262.3" y="-158.3" font-family="Times,serif" font-size="14.00">log</text>
</g>
<!-- 22&#45;&gt;24 -->
<g id="edge7" class="edge">
<title>22-&gt;24</title>
<path fill="none" stroke="black" d="M229.05,-217.12C234.44,-208.34 241.25,-197.26 247.3,-187.42"/>
<polygon fill="black" stroke="black" points="250.33,-189.17 252.58,-178.82 244.36,-185.51 250.33,-189.17"/>
</g>
<!-- 25 -->
<g id="node26" class="node">
<title>25</title>
<ellipse fill="#136ed4" stroke="black" cx="262.3" cy="-90" rx="28.7" ry="18"/>
<text text-anchor="middle" x="262.3" y="-86.3" font-family="Times,serif" font-size="14.00">mul</text>
</g>
<!-- 24&#45;&gt;25 -->
<g id="edge6" class="edge">
<title>24-&gt;25</title>
<path fill="none" stroke="black" d="M262.3,-143.7C262.3,-135.98 262.3,-126.71 262.3,-118.11"/>
<polygon fill="black" stroke="black" points="265.8,-118.1 262.3,-108.1 258.8,-118.1 265.8,-118.1"/>
</g>
<!-- 26 -->
<g id="node27" class="node">
<title>26</title>
<ellipse fill="#60a6f6" stroke="black" cx="220.3" cy="-18" rx="40.09" ry="18"/>
<text text-anchor="middle" x="220.3" y="-14.3" font-family="Times,serif" font-size="14.00">-0.447</text>
</g>
<!-- 25&#45;&gt;26 -->
<g id="edge5" class="edge">
<title>25-&gt;26</title>
<path fill="none" stroke="black" d="M252.56,-72.76C247.49,-64.32 241.18,-53.8 235.48,-44.31"/>
<polygon fill="black" stroke="black" points="238.42,-42.41 230.28,-35.63 232.42,-46.01 238.42,-42.41"/>
</g>
<!-- 27 -->
<g id="node28" class="node">
<title>27</title>
<ellipse fill="#60a6f6" stroke="black" cx="305.3" cy="-18" rx="27" ry="18"/>
<text text-anchor="middle" x="305.3" y="-14.3" font-family="Times,serif" font-size="14.00">X0</text>
</g>
<!-- 25&#45;&gt;27 -->
<g id="edge4" class="edge">
<title>25-&gt;27</title>
<path fill="none" stroke="black" d="M272.27,-72.76C277.53,-64.19 284.11,-53.49 290,-43.9"/>
<polygon fill="black" stroke="black" points="293.13,-45.5 295.38,-35.15 287.16,-41.84 293.13,-45.5"/>
</g>
<!-- 29 -->
<g id="node30" class="node">
<title>29</title>
<ellipse fill="#60a6f6" stroke="black" cx="291.3" cy="-234" rx="27" ry="18"/>
<text text-anchor="middle" x="291.3" y="-230.3" font-family="Times,serif" font-size="14.00">X0</text>
</g>
<!-- 28&#45;&gt;29 -->
<g id="edge11" class="edge">
<title>28-&gt;29</title>
<path fill="none" stroke="black" d="M291.3,-287.7C291.3,-279.98 291.3,-270.71 291.3,-262.11"/>
<polygon fill="black" stroke="black" points="294.8,-262.1 291.3,-252.1 287.8,-262.1 294.8,-262.1"/>
</g>
<!-- 30 -->
<g id="node31" class="node">
<title>30</title>
<ellipse fill="#60a6f6" stroke="black" cx="376.3" cy="-234" rx="40.09" ry="18"/>
<text text-anchor="middle" x="376.3" y="-230.3" font-family="Times,serif" font-size="14.00">-0.220</text>
</g>
<!-- 28&#45;&gt;30 -->
<g id="edge10" class="edge">
<title>28-&gt;30</title>
<path fill="none" stroke="black" d="M307.69,-291.5C319.7,-281.61 336.27,-267.96 350.11,-256.56"/>
<polygon fill="black" stroke="black" points="352.4,-259.22 357.89,-250.16 347.95,-253.81 352.4,-259.22"/>
</g>
<!-- 33 -->
<g id="node34" class="node">
<title>33</title>
<ellipse fill="#136ed4" stroke="black" cx="349.3" cy="-594" rx="27" ry="18"/>
<text text-anchor="middle" x="349.3" y="-590.3" font-family="Times,serif" font-size="14.00">sin</text>
</g>
<!-- 32&#45;&gt;33 -->
<g id="edge24" class="edge">
<title>32-&gt;33</title>
<path fill="none" stroke="black" d="M349.3,-647.7C349.3,-639.98 349.3,-630.71 349.3,-622.11"/>
<polygon fill="black" stroke="black" points="352.8,-622.1 349.3,-612.1 345.8,-622.1 352.8,-622.1"/>
</g>
<!-- 34 -->
<g id="node35" class="node">
<title>34</title>
<ellipse fill="#136ed4" stroke="black" cx="349.3" cy="-522" rx="28.7" ry="18"/>
<text text-anchor="middle" x="349.3" y="-518.3" font-family="Times,serif" font-size="14.00">mul</text>
</g>
<!-- 33&#45;&gt;34 -->
<g id="edge23" class="edge">
<title>33-&gt;34</title>
<path fill="none" stroke="black" d="M349.3,-575.7C349.3,-567.98 349.3,-558.71 349.3,-550.11"/>
<polygon fill="black" stroke="black" points="352.8,-550.1 349.3,-540.1 345.8,-550.1 352.8,-550.1"/>
</g>
<!-- 35 -->
<g id="node36" class="node">
<title>35</title>
<ellipse fill="#60a6f6" stroke="black" cx="334.3" cy="-450" rx="40.09" ry="18"/>
<text text-anchor="middle" x="334.3" y="-446.3" font-family="Times,serif" font-size="14.00">-0.447</text>
</g>
<!-- 34&#45;&gt;35 -->
<g id="edge22" class="edge">
<title>34-&gt;35</title>
<path fill="none" stroke="black" d="M345.67,-504.05C344,-496.26 341.97,-486.82 340.1,-478.08"/>
<polygon fill="black" stroke="black" points="343.52,-477.32 338,-468.28 336.67,-478.79 343.52,-477.32"/>
</g>
<!-- 36 -->
<g id="node37" class="node">
<title>36</title>
<ellipse fill="#60a6f6" stroke="black" cx="419.3" cy="-450" rx="27" ry="18"/>
<text text-anchor="middle" x="419.3" y="-446.3" font-family="Times,serif" font-size="14.00">X0</text>
</g>
<!-- 34&#45;&gt;36 -->
<g id="edge21" class="edge">
<title>34-&gt;36</title>
<path fill="none" stroke="black" d="M364.14,-506.15C373.92,-496.37 386.89,-483.4 397.8,-472.5"/>
<polygon fill="black" stroke="black" points="400.36,-474.89 404.95,-465.35 395.41,-469.94 400.36,-474.89"/>
</g>
<!-- \n -->
<g id="node38" class="node">
<title>\n</title>
<ellipse fill="lightgrey" stroke="black" cx="197.3" cy="-1170" rx="27" ry="18"/>
</g>
</g>
</svg>